<?xml version="1.0" encoding="utf-8"?>
<!-- Generator: Adobe Illustrator 15.0.0, SVG Export Plug-In . SVG Version: 6.00 Build 0)  -->
<!DOCTYPE svg PUBLIC "-//W3C//DTD SVG 1.1//EN" "http://www.w3.org/Graphics/SVG/1.1/DTD/svg11.dtd">
<svg version="1.1" id="Capa_1" xmlns="http://www.w3.org/2000/svg" xmlns:xlink="http://www.w3.org/1999/xlink" x="0px" y="0px"
	 width="191.676px" height="190.521px" viewBox="107.768 0 191.676 190.521" enable-background="new 107.768 0 191.676 190.521"
	 xml:space="preserve">
<g>
	<g>
		<g>
			<path fill="#BF0411" d="M147.77,190.52c-0.464,0-0.93-0.069-1.381-0.207c-1.193-0.367-2.192-1.191-2.777-2.295l-35.294-66.56
				c-1.217-2.296-0.343-5.146,1.954-6.363l15.445-8.19c1.965-1.042,4.174-1.592,6.388-1.592c5.069,0,9.694,2.781,12.068,7.259
				l26.913,50.752c1.708,3.222,2.061,6.915,0.99,10.401c-1.07,3.487-3.434,6.348-6.655,8.056l-15.445,8.19
				C149.29,190.335,148.532,190.52,147.77,190.52z M118.84,121.208l30.884,58.241l11.286-5.985c1-0.529,1.734-1.418,2.066-2.501
				c0.332-1.082,0.223-2.229-0.307-3.228l-26.914-50.753c-0.737-1.392-2.176-2.255-3.752-2.255c-0.692,0-1.358,0.167-1.978,0.495
				L118.84,121.208z"/>
		</g>
		<path fill="#BF0411" d="M235.329,135.258H208.97c-2.6,0-4.707-2.107-4.707-4.707c0-2.599,2.107-4.707,4.707-4.707h25.98
			c1.569-0.283,9.322-1.988,9.322-8.002c0-1.846-0.648-2.684-1.136-3.153c-1.887-1.819-5.759-2.061-6.692-2.027
			c-0.058,0.002-0.116,0.003-0.174,0.003h-19.299c-13.927,0-21.306-6.249-22.898-7.772c-0.937-0.725-8.577-6.349-19.936-6.349
			c-9.906,0-25.535,14.065-30.722,19.485c-1.797,1.878-4.776,1.944-6.654,0.149c-1.879-1.796-1.947-4.774-0.151-6.653
			c2.189-2.292,21.846-22.396,37.527-22.396c15.658,0,25.677,8.285,26.096,8.637c0.175,0.148,0.254,0.213,0.397,0.377
			c0.451,0.44,5.462,5.107,16.34,5.107h19.228c1.254-0.03,8.62-0.014,13.47,4.659c2.628,2.533,4.018,5.968,4.018,9.933
			c0,11.809-11.588,16.527-17.715,17.372C235.759,135.244,235.544,135.258,235.329,135.258z"/>
		<path fill="#BF0411" d="M236.741,167.737h-70.134c-2.6,0-4.707-2.108-4.707-4.707s2.107-4.707,4.707-4.707h70.134
			c19.968,0,28.165-12.353,28.505-12.878c0.027-0.044,0.037-0.06,0.066-0.102l21.182-31.537c0.061-0.091,0.125-0.179,0.192-0.266
			c2.463-3.167,3.602-5.903,3.294-7.914c-0.083-0.536-0.333-2.169-3.2-4.154c-2.599-1.798-3.856-1.79-6.411,0.044
			c-3.891,2.794-9.284,9.439-15.932,17.837c-0.079,0.1-0.163,0.196-0.25,0.289c-1.491,1.598-14.976,15.616-28.858,15.616
			c-2.6,0-4.707-2.107-4.707-4.707c0-2.599,2.107-4.707,4.707-4.707c8.258,0,18.441-8.889,21.851-12.492
			c7.288-9.203,12.833-15.988,17.698-19.482c5.769-4.142,11.413-4.186,17.262-0.137c4.113,2.848,6.519,6.37,7.146,10.468
			c0.714,4.658-0.99,9.699-5.065,14.986l-21.065,31.363C272.2,152.027,261.455,167.737,236.741,167.737z"/>
	</g>
	<path fill="#FFFFFF" d="M239.565,77.362h-59.308c-2.6,0-4.707-2.107-4.707-4.707c0-21.542,15.415-39.068,34.361-39.068
		c18.946,0,34.361,17.526,34.361,39.068C244.272,75.254,242.165,77.362,239.565,77.362z M185.278,67.948h49.266
		C232.642,53.826,222.319,43,209.911,43C197.503,43,187.182,53.826,185.278,67.948z"/>
	<path fill="#FFFFFF" d="M209.911,42.697c-11.771,0-21.348-9.576-21.348-21.349C188.563,9.577,198.14,0,209.911,0
		c11.771,0,21.348,9.577,21.348,21.349C231.259,33.121,221.683,42.697,209.911,42.697z M209.911,9.414
		c-6.581,0-11.934,5.354-11.934,11.935c0,6.581,5.354,11.935,11.934,11.935c6.581,0,11.934-5.354,11.934-11.935
		C221.845,14.768,216.492,9.414,209.911,9.414z"/>
</g>
</svg>
