<?xml version="1.0" encoding="utf-8"?>
<!-- Generator: Adobe Illustrator 15.0.0, SVG Export Plug-In . SVG Version: 6.00 Build 0)  -->
<!DOCTYPE svg PUBLIC "-//W3C//DTD SVG 1.1//EN" "http://www.w3.org/Graphics/SVG/1.1/DTD/svg11.dtd">
<svg version="1.1" id="Capa_1" xmlns="http://www.w3.org/2000/svg" xmlns:xlink="http://www.w3.org/1999/xlink" x="0px" y="0px"
	 width="242.479px" height="190.52px" viewBox="80.094 62.932 242.479 190.52"
	 enable-background="new 80.094 62.932 242.479 190.52" xml:space="preserve">
<g>
	<path fill="#BF0411" d="M262.757,253.452H139.911c-1.36,0-2.605-0.765-3.222-1.979c-0.616-1.212-0.498-2.669,0.306-3.768
		l60.218-82.299c0.674-0.92,1.742-1.469,2.883-1.48c1.13,0.017,2.219,0.52,2.908,1.426l62.627,82.299
		c0.832,1.092,0.973,2.562,0.363,3.793C265.384,252.674,264.128,253.452,262.757,253.452z M147.032,246.226h108.435l-55.28-72.645
		L147.032,246.226z"/>
	<path fill="#BF0411" d="M318.96,171.154H83.708c-1.995,0-3.613-1.618-3.613-3.613c0-1.994,1.618-3.612,3.613-3.612H318.96
		c1.994,0,3.613,1.618,3.613,3.612C322.574,169.536,320.955,171.154,318.96,171.154z"/>
	<g enable-background="new    ">
		<path fill="#FFFFFF" d="M199.04,149.5V140.9c-4.3-0.541-7.795-1.505-10.486-2.891c-2.692-1.386-5.017-3.622-6.976-6.712
			c-1.958-3.089-3.097-6.863-3.415-11.323l8.647-1.623c0.669,4.618,1.847,8.011,3.535,10.175c2.42,3.059,5.319,4.763,8.695,5.113
			v-27.376c-3.536-0.668-7.151-2.038-10.845-4.108c-2.739-1.529-4.85-3.646-6.33-6.354c-1.48-2.707-2.222-5.781-2.222-9.222
			c0-6.114,2.165-11.067,6.497-14.857c2.899-2.548,7.198-4.108,12.899-4.682v-4.108h5.064v4.108c5,0.478,8.965,1.942,11.896,4.395
			c3.758,3.123,6.02,7.405,6.784,12.852l-8.886,1.338c-0.511-3.375-1.569-5.963-3.177-7.763c-1.609-1.8-3.815-2.986-6.617-3.559
			v24.794c4.331,1.084,7.198,1.928,8.599,2.532c2.676,1.178,4.857,2.612,6.546,4.3c1.688,1.688,2.986,3.695,3.894,6.02
			c0.908,2.325,1.362,4.842,1.362,7.549c0,5.956-1.895,10.925-5.685,14.906c-3.79,3.98-8.695,6.114-14.716,6.401v8.695H199.04
			L199.04,149.5z M199.04,74.207c-3.345,0.51-5.98,1.848-7.907,4.013c-1.927,2.167-2.89,4.729-2.89,7.692
			c0,2.93,0.819,5.382,2.461,7.357c1.64,1.975,4.418,3.552,8.336,4.729V74.207z M204.104,133.639
			c3.344-0.414,6.106-1.863,8.288-4.348s3.273-5.558,3.273-9.221c0-3.122-0.772-5.63-2.317-7.524
			c-1.545-1.896-4.627-3.591-9.244-5.088V133.639z"/>
	</g>
</g>
</svg>
