<?xml version="1.0" encoding="utf-8"?>
<!-- Generator: Adobe Illustrator 15.0.0, SVG Export Plug-In . SVG Version: 6.00 Build 0)  -->
<!DOCTYPE svg PUBLIC "-//W3C//DTD SVG 1.1//EN" "http://www.w3.org/Graphics/SVG/1.1/DTD/svg11.dtd">
<svg version="1.1" id="Capa_1" xmlns="http://www.w3.org/2000/svg" xmlns:xlink="http://www.w3.org/1999/xlink" x="0px" y="0px"
	 width="111.958px" height="190.522px" viewBox="0 0 111.958 190.522" enable-background="new 0 0 111.958 190.522"
	 xml:space="preserve">
<g>
	<path fill="#BF0411" d="M92.95,190.522H19.008C8.527,190.522,0,181.994,0,171.514v-48.289c0-10.48,8.527-19.008,19.008-19.008
		h73.94c10.481,0,19.009,8.526,19.009,19.008v48.289C111.958,181.994,103.43,190.522,92.95,190.522z M19.008,108.218
		C10.733,108.218,4,114.949,4,123.226v48.289c0,8.275,6.731,15.008,15.008,15.008h73.94c8.276,0,15.009-6.731,15.009-15.008v-48.289
		c0-8.275-6.732-15.008-15.009-15.008H19.008L19.008,108.218z"/>
	<g>
		<path fill="#BF0411" d="M95.01,106.751h-4V87.959c0-13.735-11.172-24.909-24.906-24.909h-20.25
			c-13.734,0-24.907,11.174-24.907,24.909v18.792h-4V87.959c0-15.94,12.968-28.909,28.907-28.909h20.25
			c15.939,0,28.906,12.968,28.906,28.909V106.751z"/>
		<path fill="#BF0411" d="M84.01,106.751h-4V87.959c0-7.67-6.238-13.909-13.906-13.909h-20.25c-7.668,0-13.907,6.239-13.907,13.909
			v18.792h-4V87.959c0-9.875,8.033-17.909,17.907-17.909h20.25c9.874,0,17.906,8.034,17.906,17.909V106.751z"/>
	</g>
	<rect x="1.733" y="163.537" fill="#BF0411" width="108.492" height="4"/>
	<path fill="#BF0411" d="M55.979,146.162c-7.292,0-13.225-5.933-13.225-13.225c0-7.291,5.933-13.223,13.225-13.223
		s13.224,5.932,13.224,13.223C69.203,140.23,63.27,146.162,55.979,146.162z M55.979,123.716c-5.086,0-9.225,4.138-9.225,9.223
		c0,5.087,4.139,9.225,9.225,9.225s9.224-4.138,9.224-9.225C65.203,127.853,61.065,123.716,55.979,123.716z"/>
	<path fill="#BF0411" d="M55.979,159.989c-1.104,0-2-0.896-2-2v-13.36c0-1.104,0.896-2,2-2s2,0.896,2,2v13.36
		C57.979,159.094,57.083,159.989,55.979,159.989z"/>
	<path fill="#FFFFFF" d="M50.955,44.618c-0.521,0-1.019-0.202-1.393-0.564L31.391,26.416c-0.793-0.769-0.813-2.036-0.043-2.828
		c0.77-0.793,2.037-0.812,2.828-0.042l16.699,16.207l36.02-39.107c0.748-0.813,2.014-0.864,2.826-0.116
		c0.813,0.749,0.863,2.014,0.115,2.826l-37.41,40.618c-0.367,0.396-0.877,0.629-1.416,0.644
		C50.992,44.618,50.973,44.618,50.955,44.618z"/>
</g>
</svg>
